<svg xmlns="http://www.w3.org/2000/svg" xmlns:xlink="http://www.w3.org/1999/xlink" width="500" zoomAndPan="magnify" viewBox="0 0 375 374.999991" height="500" preserveAspectRatio="xMidYMid meet" version="1.0"><defs><g/><clipPath id="0a77665d08"><path d="M 187.5 0 C 83.945312 0 0 83.945312 0 187.5 C 0 291.054688 83.945312 375 187.5 375 C 291.054688 375 375 291.054688 375 187.5 C 375 83.945312 291.054688 0 187.5 0 Z M 187.5 0 " clip-rule="nonzero"/></clipPath><clipPath id="009905dd88"><path d="M 0 0 L 375 0 L 375 375 L 0 375 Z M 0 0 " clip-rule="nonzero"/></clipPath><clipPath id="cf0611ecaa"><path d="M 187.5 0 C 83.945312 0 0 83.945312 0 187.5 C 0 291.054688 83.945312 375 187.5 375 C 291.054688 375 375 291.054688 375 187.5 C 375 83.945312 291.054688 0 187.5 0 Z M 187.5 0 " clip-rule="nonzero"/></clipPath><clipPath id="a2b4d9d2c2"><rect x="0" width="375" y="0" height="375"/></clipPath><clipPath id="e23e977124"><rect x="0" width="205" y="0" height="375"/></clipPath></defs><g clip-path="url(#0a77665d08)"><g transform="matrix(1, 0, 0, 1, 0, 0)"><g clip-path="url(#a2b4d9d2c2)"><g clip-path="url(#009905dd88)"><g clip-path="url(#cf0611ecaa)"><rect x="-82.5" width="540" fill="#000000" height="539.999987" y="-82.499998" fill-opacity="1"/></g></g></g></g></g><g transform="matrix(1, 0, 0, 1, 85, 0)"><g clip-path="url(#e23e977124)"><g fill="#ffffff" fill-opacity="1"><g transform="translate(0.828893, 301.660721)"><g><path d="M 140.484375 -72.59375 L 199.203125 -72.59375 L 199.203125 0 L 4.125 0 L 4.125 -42.5 L 95.03125 -181.203125 L 64.34375 -181.203125 L 64.34375 -157 L 5.609375 -157 L 5.609375 -229.609375 L 194.484375 -229.609375 L 194.484375 -187.109375 L 103.890625 -48.40625 L 140.484375 -48.40625 Z M 140.484375 -72.59375 "/></g></g></g></g></g></svg>