<svg xmlns="http://www.w3.org/2000/svg" xmlns:xlink="http://www.w3.org/1999/xlink" width="500" zoomAndPan="magnify" viewBox="0 0 375 374.999991" height="500" preserveAspectRatio="xMidYMid meet" version="1.0"><defs><g/><clipPath id="852661c4d8"><path d="M 0 63.75 L 375 63.75 L 375 311.25 L 0 311.25 Z M 0 63.75 " clip-rule="nonzero"/></clipPath><clipPath id="f09fcb8ad1"><path d="M 9 63.75 L 366 63.75 C 368.386719 63.75 370.675781 64.699219 372.363281 66.386719 C 374.050781 68.074219 375 70.363281 375 72.75 L 375 302.25 C 375 304.636719 374.050781 306.925781 372.363281 308.613281 C 370.675781 310.300781 368.386719 311.25 366 311.25 L 9 311.25 C 4.03125 311.25 0 307.21875 0 302.25 L 0 72.75 C 0 67.78125 4.03125 63.75 9 63.75 Z M 9 63.75 " clip-rule="nonzero"/></clipPath><clipPath id="205dbf91eb"><path d="M 0 0.75 L 375 0.75 L 375 248.25 L 0 248.25 Z M 0 0.75 " clip-rule="nonzero"/></clipPath><clipPath id="ba8a865e3e"><path d="M 9 0.75 L 366 0.75 C 368.386719 0.75 370.675781 1.699219 372.363281 3.386719 C 374.050781 5.074219 375 7.363281 375 9.75 L 375 239.25 C 375 241.636719 374.050781 243.925781 372.363281 245.613281 C 370.675781 247.300781 368.386719 248.25 366 248.25 L 9 248.25 C 4.03125 248.25 0 244.21875 0 239.25 L 0 9.75 C 0 4.78125 4.03125 0.75 9 0.75 Z M 9 0.75 " clip-rule="nonzero"/></clipPath><clipPath id="082e065a87"><rect x="0" width="375" y="0" height="249"/></clipPath><clipPath id="285c235fbc"><path d="M 0.121094 0.601562 L 96 0.601562 L 96 187.558594 L 0.121094 187.558594 Z M 0.121094 0.601562 " clip-rule="nonzero"/></clipPath><clipPath id="cdba855319"><rect x="0" width="96" y="0" height="188"/></clipPath><clipPath id="1cd4218baa"><path d="M 181 106 L 287.878906 106 L 287.878906 150 L 181 150 Z M 181 106 " clip-rule="nonzero"/></clipPath><clipPath id="327887d589"><path d="M 93 5 L 106.878906 5 L 106.878906 33 L 93 33 Z M 93 5 " clip-rule="nonzero"/></clipPath><clipPath id="c5a5ea7ccc"><rect x="0" width="107" y="0" height="44"/></clipPath><clipPath id="e81d38f531"><rect x="0" width="288" y="0" height="188"/></clipPath></defs><g clip-path="url(#852661c4d8)"><g clip-path="url(#f09fcb8ad1)"><g transform="matrix(1, 0, 0, 1, 0, 63)"><g clip-path="url(#082e065a87)"><g clip-path="url(#205dbf91eb)"><g clip-path="url(#ba8a865e3e)"><path fill="#ff4a3e" d="M 0 0.75 L 375.117188 0.75 L 375.117188 248.25 L 0 248.25 Z M 0 0.75 " fill-opacity="1" fill-rule="nonzero"/></g></g></g></g></g></g><g transform="matrix(1, 0, 0, 1, 45, 93)"><g clip-path="url(#e81d38f531)"><g clip-path="url(#285c235fbc)"><g transform="matrix(1, 0, 0, 1, -0.000000000000007105, 0)"><g clip-path="url(#cdba855319)"><g fill="#ffffff" fill-opacity="1"><g transform="translate(1.192517, 141.878808)"><g><path d="M 64.71875 -33.4375 L 91.765625 -33.4375 L 91.765625 0 L 1.90625 0 L 1.90625 -19.578125 L 43.78125 -83.46875 L 29.640625 -83.46875 L 29.640625 -72.328125 L 2.578125 -72.328125 L 2.578125 -105.765625 L 89.59375 -105.765625 L 89.59375 -86.1875 L 47.859375 -22.296875 L 64.71875 -22.296875 Z M 64.71875 -33.4375 "/></g></g></g></g></g></g><g fill="#ffffff" fill-opacity="1"><g transform="translate(93.842559, 97.042589)"><g><path d="M 17.109375 0.53125 C 13.097656 0.53125 10.066406 -0.65625 8.015625 -3.03125 C 5.960938 -5.414062 4.9375 -8.398438 4.9375 -11.984375 C 4.9375 -21.085938 5.851562 -30.085938 7.6875 -38.984375 C 9.144531 -45.972656 11.160156 -50.644531 13.734375 -53 C 16.160156 -55.195312 19.367188 -56.296875 23.359375 -56.296875 C 27.359375 -56.296875 30.390625 -55.09375 32.453125 -52.6875 C 34.515625 -50.28125 35.546875 -47.316406 35.546875 -43.796875 C 35.546875 -40.273438 35.316406 -36.015625 34.859375 -31.015625 C 34.410156 -26.023438 33.851562 -21.851562 33.1875 -18.5 C 32.519531 -15.15625 31.953125 -12.710938 31.484375 -11.171875 C 31.023438 -9.640625 30.390625 -8.085938 29.578125 -6.515625 C 28.765625 -4.941406 27.820312 -3.675781 26.75 -2.71875 C 24.34375 -0.550781 21.128906 0.53125 17.109375 0.53125 Z M 18.03125 -7.90625 C 21.050781 -7.90625 22.992188 -10.695312 23.859375 -16.28125 C 24.429688 -19.96875 25.003906 -24.566406 25.578125 -30.078125 C 26.148438 -35.585938 26.4375 -39.460938 26.4375 -41.703125 C 26.4375 -43.941406 26.070312 -45.523438 25.34375 -46.453125 C 24.613281 -47.390625 23.582031 -47.859375 22.25 -47.859375 C 19.476562 -47.859375 17.601562 -45.054688 16.625 -39.453125 C 16.050781 -36.160156 15.476562 -31.691406 14.90625 -26.046875 C 14.34375 -20.410156 14.0625 -16.4375 14.0625 -14.125 C 14.0625 -11.8125 14.4375 -10.195312 15.1875 -9.28125 C 15.9375 -8.363281 16.882812 -7.90625 18.03125 -7.90625 Z M 18.03125 -7.90625 "/></g></g></g><g fill="#ffffff" fill-opacity="1"><g transform="translate(131.27989, 97.042589)"><g><path d="M 19.140625 -54.859375 L 15.015625 -18.203125 C 14.679688 -15.390625 14.515625 -13.382812 14.515625 -12.1875 C 14.515625 -11 14.847656 -9.988281 15.515625 -9.15625 C 16.191406 -8.320312 17.28125 -7.90625 18.78125 -7.90625 C 20.28125 -7.90625 21.421875 -8.65625 22.203125 -10.15625 C 22.992188 -11.65625 23.582031 -14.0625 23.96875 -17.375 L 28.140625 -54.65625 C 28.210938 -55.175781 28.535156 -55.445312 29.109375 -55.46875 L 36.34375 -55.765625 C 36.9375 -55.734375 37.234375 -55.445312 37.234375 -54.90625 L 33.125 -18.203125 C 32.289062 -10.691406 30.359375 -5.554688 27.328125 -2.796875 C 24.867188 -0.578125 21.664062 0.53125 17.71875 0.53125 C 13.769531 0.53125 10.753906 -0.5 8.671875 -2.5625 C 6.585938 -4.625 5.546875 -7.671875 5.546875 -11.703125 C 5.546875 -13.628906 5.664062 -15.640625 5.90625 -17.734375 L 10.125 -54.65625 C 10.164062 -54.957031 10.238281 -55.160156 10.34375 -55.265625 C 10.457031 -55.378906 10.679688 -55.445312 11.015625 -55.46875 L 18.234375 -55.71875 C 18.835938 -55.695312 19.140625 -55.410156 19.140625 -54.859375 Z M 19.140625 -54.859375 "/></g></g></g><g fill="#ffffff" fill-opacity="1"><g transform="translate(169.28933, 97.042589)"><g><path d="M 26.390625 -54.90625 L 30.578125 -1.03125 C 30.578125 -0.488281 30.269531 -0.191406 29.65625 -0.140625 L 22.171875 0.140625 C 21.671875 0.140625 21.421875 -0.0820312 21.421875 -0.53125 L 20.890625 -12.34375 L 12.765625 -12.015625 L 10.09375 -1 C 10.019531 -0.664062 9.921875 -0.4375 9.796875 -0.3125 C 9.679688 -0.195312 9.46875 -0.128906 9.15625 -0.109375 L 1.75 0.140625 C 1.269531 0.140625 1.03125 -0.0820312 1.03125 -0.53125 L 16.734375 -54.65625 C 16.898438 -55.175781 17.222656 -55.445312 17.703125 -55.46875 L 25.578125 -55.765625 C 26.078125 -55.734375 26.347656 -55.445312 26.390625 -54.90625 Z M 19.640625 -40.171875 L 14.625 -19.640625 L 20.5625 -19.84375 Z M 19.640625 -40.171875 "/></g></g></g><g fill="#ffffff" fill-opacity="1"><g transform="translate(203.758849, 97.042589)"><g><path d="M 34.375 -0.859375 C 34.375 -0.378906 34.050781 -0.140625 33.40625 -0.140625 L 25.359375 0.140625 C 25.003906 0.117188 24.742188 -0.101562 24.578125 -0.53125 L 15.59375 -23.28125 L 13.09375 -1 C 13.019531 -0.425781 12.722656 -0.128906 12.203125 -0.109375 L 4.71875 0.140625 C 4.195312 0.0976562 3.9375 -0.125 3.9375 -0.53125 L 10.125 -54.359375 C 10.164062 -54.796875 10.269531 -55.085938 10.4375 -55.234375 C 10.601562 -55.390625 11.867188 -55.566406 14.234375 -55.765625 C 16.597656 -55.972656 19.742188 -56.078125 23.671875 -56.078125 C 27.609375 -56.078125 30.644531 -55.035156 32.78125 -52.953125 C 34.914062 -50.867188 35.984375 -48.179688 35.984375 -44.890625 C 35.984375 -41.597656 35.585938 -38.691406 34.796875 -36.171875 C 34.015625 -33.660156 32.71875 -31.398438 30.90625 -29.390625 C 29.09375 -27.390625 26.828125 -25.898438 24.109375 -24.921875 L 34.265625 -1.28125 C 34.335938 -1.144531 34.375 -1.003906 34.375 -0.859375 Z M 18.34375 -47.75 L 16.34375 -29.96875 C 20.757812 -30.226562 23.800781 -32.234375 25.46875 -35.984375 C 26.375 -38.035156 26.828125 -40.113281 26.828125 -42.21875 C 26.828125 -44.332031 26.390625 -45.8125 25.515625 -46.65625 C 24.648438 -47.5 23.394531 -47.921875 21.75 -47.921875 C 20.101562 -47.921875 18.96875 -47.863281 18.34375 -47.75 Z M 18.34375 -47.75 "/></g></g></g><g fill="#ffffff" fill-opacity="1"><g transform="translate(240.659829, 97.042589)"><g><path d="M 19.140625 -54.859375 L 13.015625 -1 C 12.941406 -0.425781 12.632812 -0.128906 12.09375 -0.109375 L 4.71875 0.140625 C 4.195312 0.140625 3.9375 -0.0820312 3.9375 -0.53125 L 10.125 -54.65625 C 10.21875 -55.15625 10.523438 -55.425781 11.046875 -55.46875 L 18.203125 -55.71875 C 18.828125 -55.695312 19.140625 -55.410156 19.140625 -54.859375 Z M 19.140625 -54.859375 "/></g></g></g><g clip-path="url(#1cd4218baa)"><g transform="matrix(1, 0, 0, 1, 181, 106)"><g clip-path="url(#c5a5ea7ccc)"><g fill="#fa982f" fill-opacity="1"><g transform="translate(0.579826, 32.444728)"><g><path d="M 15.609375 -26.359375 C 15.847656 -26.359375 15.96875 -26.253906 15.96875 -26.046875 L 16.171875 -6.484375 L 20.375 -25.84375 C 20.457031 -26.09375 20.59375 -26.226562 20.78125 -26.25 L 23.984375 -26.359375 C 24.203125 -26.335938 24.3125 -26.234375 24.3125 -26.046875 L 17.515625 -0.484375 C 17.429688 -0.242188 17.304688 -0.109375 17.140625 -0.078125 L 13.234375 0.0625 C 12.984375 0.0507812 12.859375 -0.0859375 12.859375 -0.359375 L 12.703125 -16.21875 L 9.4375 -0.46875 C 9.375 -0.195312 9.238281 -0.0625 9.03125 -0.0625 L 4.96875 0.0625 C 4.738281 0.0507812 4.609375 -0.0859375 4.578125 -0.359375 L 3.171875 -25.84375 C 3.171875 -26.101562 3.320312 -26.238281 3.625 -26.25 L 7.140625 -26.359375 C 7.390625 -26.359375 7.515625 -26.253906 7.515625 -26.046875 L 7.75 -6.15625 L 12.046875 -25.84375 C 12.085938 -26.070312 12.265625 -26.207031 12.578125 -26.25 Z M 15.609375 -26.359375 "/></g></g></g><g fill="#fa982f" fill-opacity="1"><g transform="translate(23.859747, 32.444728)"><g><path d="M 12.65625 -11.578125 L 7.390625 -11.375 L 6.59375 -4.4375 L 13.078125 -4.65625 C 13.367188 -4.644531 13.515625 -4.5 13.515625 -4.21875 L 13.078125 -0.703125 C 13.054688 -0.472656 12.910156 -0.328125 12.640625 -0.265625 L 2.234375 0.0625 C 1.984375 0.0625 1.859375 -0.0390625 1.859375 -0.25 L 4.78125 -25.859375 C 4.832031 -26.097656 4.984375 -26.226562 5.234375 -26.25 L 14.5 -26.5625 C 14.78125 -26.53125 14.921875 -26.378906 14.921875 -26.109375 L 14.5 -22.609375 C 14.46875 -22.328125 14.320312 -22.175781 14.0625 -22.15625 L 8.609375 -22 L 7.890625 -15.703125 L 13.09375 -15.890625 C 13.382812 -15.878906 13.53125 -15.734375 13.53125 -15.453125 L 13.09375 -12 C 13.050781 -11.738281 12.90625 -11.597656 12.65625 -11.578125 Z M 12.65625 -11.578125 "/></g></g></g><g fill="#fa982f" fill-opacity="1"><g transform="translate(39.171033, 32.444728)"><g><path d="M 16.671875 -21.046875 C 16.671875 -17.691406 15.375 -15.375 12.78125 -14.09375 C 13.65625 -13.71875 14.335938 -13.144531 14.828125 -12.375 C 15.328125 -11.601562 15.578125 -10.613281 15.578125 -9.40625 C 15.578125 -8.195312 15.398438 -7.050781 15.046875 -5.96875 C 14.691406 -4.882812 14.144531 -3.90625 13.40625 -3.03125 C 11.820312 -1.15625 9.3125 -0.160156 5.875 -0.046875 L 2.234375 0.0625 C 1.984375 0.0390625 1.859375 -0.0625 1.859375 -0.25 L 4.765625 -25.71875 C 4.796875 -25.925781 4.847656 -26.066406 4.921875 -26.140625 C 5.003906 -26.210938 5.707031 -26.296875 7.03125 -26.390625 C 8.363281 -26.484375 9.632812 -26.53125 10.84375 -26.53125 C 12.875 -26.53125 14.351562 -26.039062 15.28125 -25.0625 C 16.207031 -24.09375 16.671875 -22.753906 16.671875 -21.046875 Z M 8.421875 -12.421875 C 7.960938 -12.421875 7.660156 -12.414062 7.515625 -12.40625 L 6.59375 -4.15625 C 8.207031 -4.15625 9.425781 -4.671875 10.25 -5.703125 C 11.082031 -6.734375 11.5 -8.082031 11.5 -9.75 C 11.5 -10.539062 11.226562 -11.179688 10.6875 -11.671875 C 10.144531 -12.171875 9.390625 -12.421875 8.421875 -12.421875 Z M 7.796875 -15.09375 C 11.035156 -15.113281 12.65625 -16.828125 12.65625 -20.234375 C 12.65625 -22.023438 11.726562 -22.921875 9.875 -22.921875 C 9.363281 -22.921875 8.960938 -22.90625 8.671875 -22.875 Z M 7.796875 -15.09375 "/></g></g></g><g fill="#fa982f" fill-opacity="1"><g transform="translate(56.275685, 32.444728)"><g><path d="M 1.484375 0.25 C 1.203125 0.25 1.0625 0.113281 1.0625 -0.15625 L 1.484375 -3.6875 C 1.535156 -3.9375 1.679688 -4.070312 1.921875 -4.09375 C 3.679688 -4.269531 4.84375 -4.546875 5.40625 -4.921875 C 5.976562 -5.304688 6.265625 -6.0625 6.265625 -7.1875 C 6.265625 -8.320312 5.972656 -9.789062 5.390625 -11.59375 C 4.816406 -13.40625 4.445312 -14.613281 4.28125 -15.21875 C 3.738281 -17.132812 3.46875 -18.703125 3.46875 -19.921875 C 3.46875 -21.148438 3.664062 -22.195312 4.0625 -23.0625 C 4.457031 -23.9375 5.019531 -24.628906 5.75 -25.140625 C 7.175781 -26.140625 9.085938 -26.640625 11.484375 -26.640625 C 11.796875 -26.640625 11.953125 -26.5 11.953125 -26.21875 L 11.484375 -22.703125 C 11.441406 -22.421875 11.300781 -22.269531 11.0625 -22.25 C 8.875 -22.101562 7.78125 -21.457031 7.78125 -20.3125 C 7.78125 -19.25 8.242188 -17.160156 9.171875 -14.046875 C 10.109375 -10.941406 10.578125 -8.71875 10.578125 -7.375 C 10.578125 -2.289062 7.546875 0.25 1.484375 0.25 Z M 1.484375 0.25 "/></g></g></g><g fill="#fa982f" fill-opacity="1"><g transform="translate(68.355528, 32.444728)"><g><path d="M 9.046875 -25.953125 L 6.15625 -0.46875 C 6.125 -0.195312 5.976562 -0.0546875 5.71875 -0.046875 L 2.234375 0.0625 C 1.984375 0.0625 1.859375 -0.0390625 1.859375 -0.25 L 4.78125 -25.859375 C 4.832031 -26.097656 4.984375 -26.226562 5.234375 -26.25 L 8.609375 -26.359375 C 8.898438 -26.347656 9.046875 -26.210938 9.046875 -25.953125 Z M 9.046875 -25.953125 "/></g></g></g><g fill="#fa982f" fill-opacity="1"><g transform="translate(77.779159, 32.444728)"><g><path d="M 3.453125 -26.171875 L 14.421875 -26.5625 C 14.679688 -26.550781 14.8125 -26.410156 14.8125 -26.140625 L 14.359375 -22.671875 C 14.335938 -22.503906 14.300781 -22.382812 14.25 -22.3125 C 14.207031 -22.25 14.101562 -22.210938 13.9375 -22.203125 L 10.65625 -22.078125 L 8.1875 -0.46875 C 8.15625 -0.195312 8.007812 -0.0546875 7.75 -0.046875 L 4.234375 0.0625 C 4.003906 0.0625 3.890625 -0.0390625 3.890625 -0.25 L 6.375 -21.953125 L 3.015625 -21.84375 C 2.734375 -21.851562 2.59375 -21.984375 2.59375 -22.234375 L 3.015625 -25.75 C 3.023438 -26.019531 3.171875 -26.160156 3.453125 -26.171875 Z M 3.453125 -26.171875 "/></g></g></g><g clip-path="url(#327887d589)"><g fill="#fa982f" fill-opacity="1"><g transform="translate(91.178649, 32.444728)"><g><path d="M 12.65625 -11.578125 L 7.390625 -11.375 L 6.59375 -4.4375 L 13.078125 -4.65625 C 13.367188 -4.644531 13.515625 -4.5 13.515625 -4.21875 L 13.078125 -0.703125 C 13.054688 -0.472656 12.910156 -0.328125 12.640625 -0.265625 L 2.234375 0.0625 C 1.984375 0.0625 1.859375 -0.0390625 1.859375 -0.25 L 4.78125 -25.859375 C 4.832031 -26.097656 4.984375 -26.226562 5.234375 -26.25 L 14.5 -26.5625 C 14.78125 -26.53125 14.921875 -26.378906 14.921875 -26.109375 L 14.5 -22.609375 C 14.46875 -22.328125 14.320312 -22.175781 14.0625 -22.15625 L 8.609375 -22 L 7.890625 -15.703125 L 13.09375 -15.890625 C 13.382812 -15.878906 13.53125 -15.734375 13.53125 -15.453125 L 13.09375 -12 C 13.050781 -11.738281 12.90625 -11.597656 12.65625 -11.578125 Z M 12.65625 -11.578125 "/></g></g></g></g></g></g></g></g></g></svg>